<svg width="40" height="40" viewBox="0 0 40 40" fill="none" xmlns="http://www.w3.org/2000/svg">
    <circle cx="20" cy="20" r="20" fill="#A35D0A"/>
    <path d="M29 26.75V20.1301C29 18.9814 29 18.4071 28.8519 17.8781C28.7208 17.4096 28.5053 16.9689 28.2159 16.5777C27.8893 16.1361 27.436 15.7835 26.5292 15.0783L23.9292 13.0561L23.9292 13.0561C22.5239 11.963 21.8213 11.4165 21.0454 11.2065C20.3608 11.0211 19.6392 11.0211 18.9546 11.2065C18.1787 11.4165 17.4761 11.963 16.0708 13.0561L13.4708 15.0783C12.564 15.7835 12.1107 16.1361 11.7841 16.5777C11.4947 16.9689 11.2792 17.4096 11.1481 17.8781C11 18.4071 11 18.9814 11 20.1301V26.75C11 27.4478 11 27.7967 11.0861 28.0806C11.28 28.7198 11.7802 29.22 12.4194 29.4139C12.7033 29.5 13.0522 29.5 13.75 29.5H14.375C14.4911 29.5 14.5491 29.5 14.5981 29.4976C15.6255 29.4471 16.4471 28.6255 16.4976 27.5981C16.5 27.5491 16.5 27.4911 16.5 27.375V24.5C16.5 22.567 18.067 21 20 21C21.933 21 23.5 22.567 23.5 24.5V27.375C23.5 27.4911 23.5 27.5491 23.5024 27.5981C23.5529 28.6255 24.3745 29.4471 25.4019 29.4976C25.4509 29.5 25.5089 29.5 25.625 29.5H26.25C26.9478 29.5 27.2967 29.5 27.5806 29.4139C28.2198 29.22 28.72 28.7198 28.9139 28.0806C29 27.7967 29 27.4478 29 26.75Z" stroke="white" stroke-width="1.8"/>
</svg>
