<svg width="40" height="40" viewBox="0 0 40 40" fill="none" xmlns="http://www.w3.org/2000/svg">
    <circle cx="20" cy="20" r="20" fill="#F1CB00"/>
    <path fill-rule="evenodd" clip-rule="evenodd" d="M16.9959 10C17.7482 9.36297 18.8391 9 20 9C21.1609 9 22.2518 9.36297 23.0041 10H24C25.1046 10 26 10.8954 26 12H27C28.1046 12 29 12.8954 29 14V29C29 30.1046 28.1046 31 27 31H13C11.8954 31 11 30.1046 11 29V14C11 12.8954 11.8954 12 13 12H14C14 10.8954 14.8954 10 16 10H16.9959ZM24 15C24.7403 15 25.3866 14.5978 25.7324 14H27V29H13V14H14.2676C14.6134 14.5978 15.2597 15 16 15H24ZM19 18V21H16V23H19V26H21V23H24V21H21V18H19ZM17.8576 12L18.1566 11.6554C18.4852 11.2767 19.1894 11 20 11C20.8106 11 21.5148 11.2767 21.8434 11.6554L22.1424 12H24V13H16V12H17.4013H17.8576Z" fill="white"/>
</svg>