<svg width="40" height="40" viewBox="0 0 40 40" fill="none" xmlns="http://www.w3.org/2000/svg">
    <circle cx="20" cy="20" r="20" fill="#F08A11"/>
    <path d="M19.0349 27.4562L29.1771 24.7386M8.58057 11.6224L9.54649 11.3636C10.6134 11.0777 11.7101 11.7109 11.996 12.7778L15.3606 25.3349M23.0187 19.1418L21.9834 15.2781M21.9834 15.2781L20.9227 17.1152M21.9834 15.2781L23.8205 16.3387M27.1666 13.3716L28.4607 18.2013C28.8895 19.8016 27.9398 21.4467 26.3394 21.8755L21.5097 23.1696C19.9093 23.5984 18.2643 22.6487 17.8355 21.0483L16.5414 16.2186C16.1126 14.6182 17.0623 12.9732 18.6627 12.5444L23.4924 11.2503C25.0928 10.8215 26.7378 11.7712 27.1666 13.3716Z" stroke="white" stroke-width="1.8" stroke-linecap="round" stroke-linejoin="round"/>
    <circle cx="16.1371" cy="28.2326" r="3" transform="rotate(-15 16.1371 28.2326)" stroke="white" stroke-width="1.8"/>
</svg>
